<svg width="169" height="188" viewBox="0 0 169 188" fill="none" xmlns="http://www.w3.org/2000/svg">
<path d="M159.356 60.3877H12.6787V127.107H159.356V60.3877Z" fill="#44352E"/>
<path d="M15.2383 138.569H152.933V174.214C152.933 177.138 150.557 179.489 147.658 179.489H20.5132C17.5885 179.489 15.2383 177.112 15.2383 174.214V138.569Z" fill="#936047"/>
<path d="M54.8761 184.685H19.3883C14.2179 184.685 10.0137 180.481 10.0137 175.311V133.321H54.8761V184.685ZM20.4589 174.24H44.4308V143.766H20.4589V174.24Z" fill="#774531"/>
<path d="M89.2941 184.685H44.4316V133.321H89.2941V184.685ZM54.8769 174.24H78.8488V143.766H54.8769V174.24Z" fill="#774531"/>
<path d="M123.711 184.685H78.8486V133.321H123.711V184.685ZM89.2939 174.24H113.266V143.766H89.2939V174.24Z" fill="#774531"/>
<path d="M148.781 184.685H113.293V133.321H158.155V175.311C158.155 180.481 153.951 184.685 148.781 184.685ZM123.738 174.24H147.71V143.766H123.738V174.24Z" fill="#774531"/>
<path d="M152.904 154.995V138.569H15.2095V154.995H152.904Z" fill="#774531"/>
<path d="M152.931 138.569V174.057C152.931 177.06 150.502 179.489 147.499 179.489H20.6414C17.6384 179.489 15.2099 177.06 15.2099 174.057V138.569H152.905M152.905 130.735H15.2099C10.8751 130.735 7.37598 134.235 7.37598 138.569V174.057C7.37598 181.369 13.3298 187.323 20.6414 187.323H147.499C154.811 187.323 160.765 181.369 160.765 174.057V138.569C160.765 134.235 157.266 130.735 152.931 130.735H152.905Z" fill="black"/>
<path d="M164.161 53.6753H3.98242V71.0405H164.161V53.6753Z" fill="#936047"/>
<path d="M164.161 135.802V53.7026H146.796V135.802H164.161Z" fill="#936047"/>
<path d="M3.98242 118.41H164.161V130.318C164.161 133.321 161.706 135.775 158.703 135.775H9.44006C6.43705 135.775 3.98242 133.321 3.98242 130.318V118.41Z" fill="#936047"/>
<path d="M21.3467 135.802L21.3467 53.7026H3.98136L3.98136 135.802H21.3467Z" fill="#936047"/>
<path d="M156.979 139.693H11.1635C5.05304 139.693 0.0654297 134.705 0.0654297 128.594V64.9305C0.0654297 56.5743 6.88096 49.7588 15.2372 49.7588H152.932C161.288 49.7588 168.104 56.5482 168.104 64.9305V128.594C168.104 134.705 163.116 139.693 157.006 139.693H156.979ZM15.2372 57.5927C11.1896 57.5927 7.89938 60.883 7.89938 64.9305V128.594C7.89938 130.396 9.36172 131.859 11.1635 131.859H156.979C158.781 131.859 160.244 130.396 160.244 128.594V64.9305C160.244 60.883 156.953 57.5927 152.906 57.5927H15.2111H15.2372ZM146.795 122.327H21.3477C19.1803 122.327 17.4307 120.578 17.4307 118.41V71.0671C17.4307 68.8997 19.1803 67.1502 21.3477 67.1502H146.795C148.963 67.1502 150.712 68.8997 150.712 71.0671V118.41C150.712 120.578 148.963 122.327 146.795 122.327ZM25.2646 114.493H142.878V74.9841H25.2646V114.493Z" fill="black"/>
<path d="M75.165 90.4422V10.9276C75.165 7.08892 78.8209 3.98145 83.3385 3.98145C87.856 3.98145 91.5119 7.08892 91.5119 10.9276V84.4361" fill="#7EE86B"/>
<path d="M90.2595 106.842C88.6405 106.842 87.1259 105.824 86.5515 104.231C84.1752 97.4417 78.2736 92.4801 71.1969 91.305C66.0004 90.4433 60.7778 91.6184 56.4952 94.6997C54.7456 95.9532 52.291 95.5354 51.0375 93.7858C49.7841 92.0362 50.2019 89.5816 51.9515 88.3282C57.9575 84.0717 65.2431 82.3743 72.5026 83.6016C82.3995 85.2729 90.599 92.1929 93.9415 101.672C94.6465 103.709 93.5759 105.955 91.5391 106.66C91.1213 106.816 90.6773 106.895 90.2334 106.895L90.2595 106.842Z" fill="black"/>
<path d="M86.6048 94.3596C85.8997 94.3596 85.2208 94.1768 84.5679 93.7851C82.7139 92.6622 82.1394 90.2598 83.2362 88.4058C85.4297 84.776 88.9027 82.2169 93.0286 81.2246C98.6429 79.8406 104.571 81.6424 108.488 85.8728C109.95 87.4657 109.845 89.9464 108.279 91.4088C106.686 92.8711 104.205 92.7666 102.743 91.1998C100.758 89.0324 97.7551 88.1446 94.9087 88.8496C92.8197 89.3719 91.0701 90.6514 89.9472 92.5055C89.2161 93.7328 87.9104 94.3856 86.6048 94.3856V94.3596Z" fill="black"/>
<path d="M116.086 13.9047C101.045 10.6928 86.2391 20.2763 83.0272 35.3175C81.6171 41.9241 85.8213 48.4524 92.454 49.8625C107.73 53.1267 122.771 43.3864 126.036 28.1102L128.516 16.5682L116.113 13.9047H116.086Z" fill="#4BAF37"/>
<path d="M79.083 87.8318H71.249V10.9285C71.249 4.9486 76.6806 0.0654297 83.3394 0.0654297C89.9983 0.0654297 95.4298 4.92249 95.4298 10.9285V13.0959C101.958 9.64893 109.583 8.52608 116.921 10.0929L129.325 12.7565C130.343 12.9654 131.231 13.5921 131.805 14.4538C132.38 15.3155 132.563 16.3862 132.354 17.4046L129.873 28.9466C126.426 45.0584 111.437 55.7648 95.4298 54.2764V84.437H87.5958V49.576C87.5958 48.3486 88.1703 47.1736 89.1888 46.4424C90.1811 45.7113 91.4606 45.4762 92.6618 45.8418C92.8446 45.894 93.0274 45.9724 93.2102 46.0246C106.45 48.8709 119.402 40.4625 122.222 27.3276L123.867 19.5981L115.276 17.7702C107.755 16.1511 99.869 18.3186 94.1503 23.5151C93.0013 24.5596 91.3561 24.8207 89.9199 24.194C88.5098 23.5672 87.5958 22.1572 87.5958 20.6165V10.9285C87.5958 9.28339 85.6374 7.89938 83.3394 7.89938C81.0415 7.89938 79.083 9.28339 79.083 10.9285V87.8318Z" fill="black"/>
<path d="M86.291 32.3152C85.821 32.3152 85.3248 32.2368 84.8548 32.0279C82.8441 31.2445 81.8518 28.9466 82.6613 26.9358C84.672 21.8699 87.7795 19.0496 88.1189 18.7363C89.738 17.3001 92.2187 17.4829 93.6549 19.1019C95.065 20.7209 94.9084 23.1755 93.3155 24.6117C93.2371 24.6901 91.2264 26.5703 89.9469 29.8083C89.3462 31.349 87.8578 32.289 86.291 32.289V32.3152Z" fill="black"/>
</svg>