<svg width="164" height="40" viewBox="0 0 164 40" fill="none" xmlns="http://www.w3.org/2000/svg">
<g clip-path="url(#clip0_149_36)">
<path d="M13.1288 21.5618V23.943H11.0954C11.4049 24.4455 11.5375 25.0353 11.5375 25.6907C11.5375 26.3024 11.4049 26.8704 11.1617 27.3947C10.9186 27.919 10.565 28.3778 10.1008 28.771C9.63666 29.1642 9.0841 29.4701 8.39892 29.6885C7.73585 29.907 6.96226 30.0162 6.12237 30.0162H5.94555C5.94555 30.0162 5.76873 30.0162 5.65822 29.9944C5.56981 30.1255 5.5035 30.2565 5.4372 30.3658C5.39299 30.475 5.34879 30.6279 5.34879 30.8027C5.34879 31.1085 5.4814 31.3051 5.74663 31.4362C6.01186 31.5673 6.3655 31.6328 6.78544 31.6765L8.90728 31.8076C10.2334 31.895 11.2722 32.2008 12.0237 32.7033C12.7752 33.2057 13.1509 34.0359 13.1509 35.1719C13.1509 35.9365 12.952 36.6137 12.5321 37.2254C12.1121 37.8152 11.5596 38.3177 10.8744 38.7328C10.1892 39.1478 9.39353 39.4537 8.50943 39.6722C7.62534 39.8906 6.69703 39.9998 5.74663 39.9998C4.99515 39.9998 4.28787 39.9343 3.6027 39.8251C2.91752 39.7158 2.29865 39.5192 1.76819 39.2571C1.23774 38.9949 0.795687 38.6672 0.486253 38.2522C0.176819 37.8371 0 37.3346 0 36.7448C0 36.3079 0.0884097 35.9365 0.287332 35.6088C0.486253 35.2811 0.72938 34.9971 1.03881 34.7787C1.34825 34.5383 1.70189 34.3417 2.09973 34.2107C2.49757 34.0577 2.91752 33.9267 3.33747 33.8393C2.96172 33.6427 2.67439 33.4024 2.45337 33.1184C2.23234 32.8344 2.14394 32.4848 2.14394 32.0479C2.14394 31.7421 2.21024 31.4799 2.32075 31.2396C2.43127 30.9993 2.58598 30.7808 2.7407 30.5842C2.91752 30.3876 3.09434 30.2347 3.31536 30.0818C3.53639 29.9507 3.73531 29.8196 3.95633 29.7322C2.91752 29.4264 2.12183 28.9239 1.54717 28.2249C0.994609 27.5258 0.707278 26.6738 0.707278 25.7126C0.707278 25.079 0.81779 24.511 1.06092 23.9649C1.30404 23.4187 1.65768 22.96 2.09973 22.5667C2.56388 22.1735 3.11644 21.8677 3.80162 21.6274C4.46469 21.4089 5.23827 21.2778 6.10027 21.2778C6.45391 21.2778 6.78544 21.2778 7.11698 21.3434C7.44852 21.3871 7.75795 21.4526 8.06739 21.54H13.1067L13.1288 21.5618ZM4.99515 34.2325C4.64151 34.4291 4.28787 34.6694 3.95633 34.9316C3.6248 35.1937 3.44798 35.587 3.44798 36.0676C3.44798 36.6137 3.6911 37.0069 4.15526 37.2691C4.61941 37.5312 5.26038 37.6405 6.07817 37.6405C6.54232 37.6405 6.98437 37.5968 7.44852 37.5094C7.89057 37.422 8.31051 37.2909 8.66415 37.138C9.01779 36.9851 9.30512 36.7666 9.52614 36.5263C9.74717 36.286 9.85768 36.002 9.85768 35.6525C9.85768 35.2374 9.68086 34.9316 9.34933 34.7787C8.99569 34.6039 8.55364 34.5165 7.97898 34.4728L5.03935 34.2325H4.99515ZM6.14447 27.7661C6.80755 27.7661 7.36011 27.5913 7.75795 27.1981C8.1558 26.8267 8.37682 26.3243 8.37682 25.6907C8.37682 25.0572 8.1779 24.5329 7.78005 24.1615C7.38221 23.7901 6.82965 23.5935 6.14447 23.5935C5.4593 23.5935 4.90674 23.7683 4.50889 24.1397C4.11105 24.511 3.91213 25.0135 3.91213 25.6907C3.91213 26.3679 4.11105 26.8486 4.531 27.2199C4.92884 27.5913 5.4814 27.7661 6.14447 27.7661Z" fill="#242424"/>
<path d="M23.2297 24.6202H22.6108C21.7046 24.6202 20.9531 24.7513 20.3564 25.0353C19.7596 25.3192 19.2734 25.7125 18.9197 26.2368V34.3198H15.2949V21.5617H18.7871V23.8119C19.0302 23.0691 19.4281 22.4793 19.9585 22.0642C20.489 21.6491 21.2184 21.4307 22.1246 21.4307C22.5224 21.4307 22.8982 21.4744 23.2076 21.5617V24.6202H23.2297Z" fill="#242424"/>
<path d="M30.6563 21.2998C31.4961 21.2998 32.2697 21.4309 32.9328 21.693C33.5959 21.9552 34.1484 22.3266 34.5905 22.8072C35.0325 23.2878 35.3641 23.8558 35.6072 24.533C35.8282 25.2102 35.9608 25.953 35.9608 26.805C35.9608 27.1545 35.9608 27.5041 35.8945 27.8754C35.8503 28.225 35.784 28.5527 35.6956 28.8585H28.0261C28.0703 29.7979 28.3576 30.5407 28.9102 31.0868C29.4627 31.633 30.3247 31.917 31.5404 31.917C32.2255 31.917 32.9107 31.8514 33.5517 31.7203C34.2147 31.5893 34.7894 31.4145 35.2978 31.1742L35.7398 33.6209C35.0988 33.9268 34.3695 34.1671 33.5738 34.3419C32.7781 34.5166 31.9161 34.5822 31.0541 34.5822C29.9711 34.5822 29.0207 34.4292 28.1808 34.1016C27.3409 33.7957 26.6557 33.3369 26.0811 32.7689C25.5064 32.201 25.0643 31.5019 24.777 30.6936C24.4676 29.8853 24.335 28.9896 24.335 28.0065C24.335 27.0235 24.4897 26.1059 24.777 25.2758C25.0643 24.4456 25.4843 23.7466 26.0368 23.1567C26.5894 22.5669 27.2525 22.1081 28.0482 21.8023C28.8439 21.4746 29.728 21.3217 30.7226 21.3217L30.6563 21.2998ZM30.4352 23.7029C29.6837 23.7029 29.1312 23.965 28.7333 24.4675C28.3355 24.9918 28.0924 25.6253 28.0261 26.4118H32.4466C32.535 25.5816 32.4023 24.9262 32.0708 24.4238C31.7393 23.9213 31.1867 23.681 30.4352 23.681V23.7029Z" fill="#242424"/>
<path d="M44.1162 21.2998C44.9561 21.2998 45.7297 21.4309 46.3928 21.693C47.0558 21.9552 47.6084 22.3266 48.0504 22.8072C48.4925 23.2878 48.824 23.8558 49.0672 24.533C49.2882 25.2102 49.4208 25.953 49.4208 26.805C49.4208 27.1545 49.4208 27.5041 49.3545 27.8754C49.3103 28.225 49.244 28.5527 49.1556 28.8585H41.486C41.5302 29.7979 41.8176 30.5407 42.3701 31.0868C42.9227 31.633 43.7847 31.917 45.0003 31.917C45.6855 31.917 46.3707 31.8514 47.0116 31.7203C47.6747 31.5893 48.2494 31.4145 48.7577 31.1742L49.1998 33.6209C48.5588 33.9268 47.8294 34.1671 47.0337 34.3419C46.238 34.5166 45.3761 34.5822 44.5141 34.5822C43.431 34.5822 42.4806 34.4292 41.6407 34.1016C40.8009 33.7957 40.1157 33.3369 39.541 32.7689C38.9663 32.201 38.5243 31.5019 38.237 30.6936C37.9275 29.8853 37.7949 28.9896 37.7949 28.0065C37.7949 27.0235 37.9496 26.1059 38.237 25.2758C38.5243 24.4456 38.9442 23.7466 39.4968 23.1567C40.0494 22.5669 40.7124 22.1081 41.5081 21.8023C42.3038 21.4746 43.1879 21.3217 44.1825 21.3217L44.1162 21.2998ZM43.8952 23.7029C43.1437 23.7029 42.5911 23.965 42.1933 24.4675C41.7955 24.9918 41.5523 25.6253 41.486 26.4118H45.9065C45.9949 25.5816 45.8623 24.9262 45.5308 24.4238C45.1992 23.9213 44.6467 23.681 43.8952 23.681V23.7029Z" fill="#242424"/>
<path d="M52.0293 34.32V21.562H55.5215V23.2878C55.9414 22.6106 56.494 22.1081 57.135 21.7804C57.7759 21.4527 58.5053 21.2998 59.2789 21.2998C60.1188 21.2998 60.8261 21.4746 61.4228 21.8241C62.0196 22.1736 62.5058 22.6324 62.8595 23.2223C63.2352 23.8121 63.5005 24.4893 63.6773 25.2758C63.8541 26.0622 63.9425 26.8705 63.9425 27.7007V34.3419H60.3177V27.6788C60.3177 26.521 60.1409 25.6472 59.7651 25.0573C59.4115 24.4675 58.8147 24.1616 57.9748 24.1616C57.4444 24.1616 56.9802 24.2927 56.6045 24.533C56.2067 24.7733 55.8972 25.0573 55.6541 25.4069V34.3419H52.0293V34.32Z" fill="#242424"/>
<path d="M67.2578 15.8164H70.8826V22.6105C71.2805 22.2173 71.7446 21.9114 72.2972 21.6711C72.8497 21.4308 73.5128 21.2997 74.3085 21.2997C75.1484 21.2997 75.922 21.4527 76.6071 21.7804C77.2923 22.1081 77.867 22.545 78.3532 23.1348C78.8395 23.7028 79.1931 24.4019 79.4584 25.2102C79.7236 26.0185 79.8341 26.8923 79.8341 27.8317C79.8341 28.7711 79.6794 29.7105 79.392 30.5406C79.1047 31.3707 78.6406 32.0917 78.0438 32.6815C77.447 33.2932 76.6955 33.752 75.7672 34.0797C74.861 34.4073 73.8001 34.5821 72.6066 34.5821C71.612 34.5821 70.6616 34.4729 69.7775 34.2763C68.8713 34.0578 68.0535 33.7957 67.2799 33.4461V15.8164H67.2578ZM73.3139 24.0742C72.8276 24.0742 72.3856 24.1397 71.9877 24.2926C71.5899 24.4456 71.2363 24.664 70.9047 24.9262V31.5892C71.1257 31.6984 71.3689 31.764 71.6783 31.8295C71.9877 31.8732 72.2972 31.9169 72.6508 31.9169C73.2918 31.9169 73.8222 31.8077 74.2864 31.6111C74.7284 31.4144 75.1042 31.1304 75.3915 30.7591C75.6788 30.3877 75.8778 29.9726 76.0104 29.492C76.143 29.0114 76.2093 28.4652 76.2093 27.8972C76.2093 26.7831 75.9662 25.8656 75.502 25.1446C75.0379 24.4237 74.3085 24.0742 73.3139 24.0742Z" fill="#242424"/>
<path d="M82.4424 34.3201V21.562H86.0672V34.3201H82.4424Z" fill="#242424"/>
<path d="M97.4494 24.6202H96.8306C95.9244 24.6202 95.1729 24.7513 94.5761 25.0353C93.9793 25.3192 93.4931 25.7125 93.1394 26.2368V34.3198H89.5146V21.5617H93.0068V23.8119C93.25 23.0691 93.6478 22.4793 94.1783 22.0642C94.7087 21.6491 95.4381 21.4307 96.3443 21.4307C96.7421 21.4307 97.1179 21.4744 97.4273 21.5617V24.6202H97.4494Z" fill="#242424"/>
<path d="M111.086 34.3201H107.616V32.6598C107.196 33.2278 106.644 33.6866 105.981 34.0361C105.318 34.3856 104.544 34.5822 103.638 34.5822C102.886 34.5822 102.201 34.4293 101.582 34.1016C100.963 33.7739 100.411 33.337 99.9689 32.7472C99.5268 32.1792 99.1732 31.4801 98.908 30.6937C98.6427 29.9072 98.5322 29.0334 98.5322 28.094C98.5322 27.0017 98.709 26.0186 99.0627 25.1666C99.4163 24.3146 99.9026 23.6156 100.499 23.0476C101.096 22.4796 101.803 22.0426 102.599 21.7586C103.395 21.4528 104.257 21.3217 105.185 21.3217C105.649 21.3217 106.069 21.3436 106.445 21.4091C106.821 21.4746 107.174 21.562 107.462 21.6494V15.8384H111.086V34.3201ZM104.876 31.8078C105.45 31.8078 105.937 31.6986 106.356 31.4801C106.776 31.2616 107.13 30.9776 107.462 30.6281V24.2928C106.975 24.118 106.379 24.0306 105.716 24.0306C104.544 24.0306 103.66 24.3802 103.063 25.1011C102.466 25.8001 102.157 26.7832 102.157 28.0503C102.157 28.5964 102.201 29.0989 102.312 29.5577C102.422 30.0164 102.577 30.4097 102.798 30.7592C103.019 31.0869 103.306 31.349 103.638 31.5456C103.969 31.7423 104.389 31.8296 104.876 31.8296V31.8078Z" fill="#242424"/>
<path d="M124.326 23.0474C124.326 9.32812 135.576 1.74756 149.479 1.74756H159.955V3.82293C159.955 16.4062 149.633 26.6083 136.902 26.6083" stroke="#5CEAA9" stroke-width="3.8" stroke-linecap="round" stroke-linejoin="round"/>
<path d="M128.592 26.2367L144.285 10.7261" stroke="#5CEAA9" stroke-width="3.8" stroke-linecap="round" stroke-linejoin="round"/>
<path d="M142.141 25.9746H158.43C164 25.9746 162.895 32.5721 158.541 32.5721H115.485" stroke="#5CEAA9" stroke-width="3.8" stroke-linecap="round" stroke-linejoin="round"/>
<path d="M124.326 17.1924L112.28 7.03406C107.197 2.00948 98.9526 2.00948 93.8691 7.03406L84.2324 16.5589H94.8858C97.0076 16.5589 98.9747 17.2798 100.566 18.4814" stroke="#5CEAA9" stroke-width="3.8" stroke-linecap="round" stroke-linejoin="round"/>
</g>
<defs>
<clipPath id="clip0_149_36">
<rect width="164" height="40" fill="white"/>
</clipPath>
</defs>
</svg>
