<svg width="169" height="188" viewBox="0 0 169 188" fill="none" xmlns="http://www.w3.org/2000/svg">
<path d="M159.592 60.3872H13.4277V127.106H159.592V60.3872Z" fill="#44352E"/>
<path d="M15.9785 138.569H153.192V174.213C153.192 177.138 150.824 179.488 147.935 179.488H21.2349C18.3205 179.488 15.9785 177.112 15.9785 174.213V138.569Z" fill="#936047"/>
<path d="M55.478 184.685H20.1143C14.962 184.685 10.7725 180.481 10.7725 175.31V133.32H55.478V184.685ZM21.1812 174.24H45.0693V143.766H21.1812V174.24Z" fill="#774531"/>
<path d="M89.7749 184.685H45.0693V133.32H89.7749V184.685ZM55.4781 174.24H79.3661V143.766H55.4781V174.24Z" fill="#774531"/>
<path d="M124.072 184.685H79.3662V133.32H124.072V184.685ZM89.775 174.24H113.663V143.766H89.775V174.24Z" fill="#774531"/>
<path d="M149.054 184.685H113.69V133.32H158.396V175.31C158.396 180.481 154.206 184.685 149.054 184.685ZM124.099 174.24H147.987V143.766H124.099V174.24Z" fill="#774531"/>
<path d="M153.163 154.994V138.569H15.9498V154.994H153.163Z" fill="#774531"/>
<path d="M153.189 138.569V174.057C153.189 177.06 150.769 179.489 147.777 179.489H21.3626C18.3701 179.489 15.9501 177.06 15.9501 174.057V138.569H153.163M153.163 130.735H15.9501C11.6305 130.735 8.14355 134.235 8.14355 138.569V174.057C8.14355 181.369 14.0765 187.323 21.3626 187.323H147.777C155.063 187.323 160.996 181.369 160.996 174.057V138.569C160.996 134.235 157.509 130.735 153.189 130.735H153.163Z" fill="black"/>
<path d="M164.379 53.6748H4.76074V71.04H164.379V53.6748Z" fill="#936047"/>
<path d="M164.381 135.802V53.7021H147.076V135.802H164.381Z" fill="#936047"/>
<path d="M4.76074 118.41H164.379V130.317C164.379 133.32 161.933 135.775 158.94 135.775H10.1993C7.20679 135.775 4.76074 133.32 4.76074 130.317V118.41Z" fill="#936047"/>
<path d="M22.0654 135.802L22.0654 53.7021H4.76083L4.76083 135.802H22.0654Z" fill="#936047"/>
<path d="M157.224 139.693H11.9177C5.82857 139.693 0.858398 134.705 0.858398 128.594V64.9305C0.858398 56.5743 7.6501 49.7588 15.9771 49.7588H153.19C161.517 49.7588 168.309 56.5482 168.309 64.9305V128.594C168.309 134.705 163.339 139.693 157.25 139.693H157.224ZM15.9771 57.5927C11.9437 57.5927 8.66496 60.883 8.66496 64.9305V128.594C8.66496 130.396 10.1222 131.859 11.9177 131.859H157.224C159.019 131.859 160.477 130.396 160.477 128.594V64.9305C160.477 60.883 157.198 57.5927 153.164 57.5927H15.9511H15.9771ZM147.075 122.327H22.0662C19.9064 122.327 18.1629 120.578 18.1629 118.41V71.0671C18.1629 68.8997 19.9064 67.1502 22.0662 67.1502H147.075C149.235 67.1502 150.979 68.8997 150.979 71.0671V118.41C150.979 120.578 149.235 122.327 147.075 122.327ZM25.9695 114.493H143.172V74.9841H25.9695V114.493Z" fill="black"/>
<path d="M75.6963 90.2724V73.1014C75.6963 69.2627 79.3393 66.1553 83.8411 66.1553C88.3429 66.1553 91.986 69.2627 91.986 73.1014L90.8625 88.718" fill="#7EE86B"/>
<path d="M90.738 106.842C89.1247 106.842 87.6154 105.824 87.0429 104.231C84.6749 97.4417 78.794 92.4801 71.7421 91.305C66.5637 90.4433 61.3593 91.6184 57.0917 94.6997C55.3483 95.9532 52.9022 95.5354 51.6532 93.7858C50.4041 92.0362 50.8205 89.5816 52.564 88.3282C58.549 84.0717 65.8091 82.3743 73.0431 83.6016C82.9054 85.2729 91.0763 92.1929 94.4071 101.672C95.1097 103.709 94.0428 105.955 92.0131 106.66C91.5967 106.816 91.1544 106.895 90.712 106.895L90.738 106.842Z" fill="black"/>
<path d="M87.0959 94.3591C86.3933 94.3591 85.7168 94.1763 85.0662 93.7846C83.2187 92.6617 82.6462 90.2593 83.7391 88.4053C85.9249 84.7755 89.3858 82.2164 93.4973 81.2241C99.092 79.8402 104.999 81.642 108.902 85.8723C110.359 87.4652 110.255 89.9459 108.694 91.4083C107.107 92.8706 104.635 92.7661 103.177 91.1993C101.2 89.0319 98.2073 88.1441 95.3709 88.8491C93.2891 89.3714 91.5457 90.6509 90.4267 92.505C89.6981 93.7323 88.397 94.3851 87.0959 94.3851V94.3591Z" fill="black"/>
<g clip-path="url(#clip0_334_110)">
<path d="M97.8656 85.5792V73.6729C97.8656 66.5229 91.4221 60.7407 83.5226 60.7407C75.6232 60.7407 69.1797 66.5229 69.1797 73.6729V85.5792H78.4732V73.6729C78.4732 71.7144 80.7965 70.0668 83.5226 70.0668C86.2487 70.0668 88.5721 71.7144 88.5721 73.6729V85.5792H97.8656Z" fill="black"/>
</g>
<defs>
<clipPath id="clip0_334_110">
<rect width="28.6859" height="24.8385" fill="white" transform="translate(69.1797 60.7407)"/>
</clipPath>
</defs>
</svg>